<svg width="2183" height="1050" viewBox="0 0 2183 1050" fill="none" xmlns="http://www.w3.org/2000/svg">
<path d="M494.624 610.932C494.619 647.466 494.503 684.001 494.651 720.535C494.73 740.115 488.62 757.743 478.268 773.988C471.518 784.581 464.329 794.919 456.861 805.021C451.771 811.908 445.884 818.209 440.309 824.733C435.112 830.814 429.88 836.865 424.616 842.887C422.306 845.529 419.883 848.072 417.502 850.652C410.567 858.169 403.415 865.499 396.747 873.245C389.596 881.555 382.889 890.248 376.004 898.787C367.741 909.036 359.564 919.356 351.219 929.539C344.006 938.342 336.836 947.201 329.192 955.623C329.192 955.623 283.452 1005.33 262.489 1030.22C255.382 1037.62 247.706 1044.51 237.692 1048.21C231.803 1050.38 227.332 1048.24 223.071 1044.77C213.773 1037.19 207.681 1027.04 201.478 1017.06C187.933 995.28 159.547 953.666 159.547 953.666L106.956 866.126C105.176 863.146 103.701 859.929 102.509 856.665C100.455 851.042 102.804 845.85 108.242 843.326C115.416 839.997 122.677 836.846 129.77 833.354C144.579 826.067 151.194 808.044 143.459 792.618C138.841 783.407 131.981 776.429 124.119 770.056C119.9 766.635 115.971 762.709 112.538 758.5C107.437 752.244 108.836 742.309 115.435 737.696C119.493 734.858 124.006 732.559 128.551 730.552C136.36 727.104 143.929 723.269 150.674 718.032C157.959 712.376 164.031 705.637 167.836 697.091C169.878 692.505 171.281 687.83 171.643 682.712C172.812 666.157 165.145 654.075 152.95 644.023C140.492 633.753 125.901 628.547 110.34 625.29C105.878 624.356 101.512 622.554 97.377 620.575C91.7814 617.896 90.4973 612.992 92.7358 605.581C94.668 599.184 97.1 592.871 98.3129 586.336C101.561 568.834 93.1923 553.958 75.0747 549.909C68.2259 548.379 60.9154 548.927 53.8181 548.483C51.3163 548.326 48.7831 548.242 46.3337 547.766C41.4334 546.816 39.5379 543.902 39.53 537.609C39.5077 520.048 39.522 502.487 39.521 484.926C39.5207 481.092 39.5171 477.257 39.5242 472.855C39.5158 461.647 39.5115 451.007 39.4603 440.367C39.4551 439.286 39.168 438.206 39.0118 437.125C38.9796 432.692 38.9207 428.259 38.9195 423.825C38.9086 385.626 38.9082 347.426 38.9035 308.659C38.9035 308.659 40.5972 290.173 35.2242 282.058C32.467 277.894 30.1933 273.194 28.7742 268.41C26.5828 261.023 25.9741 253.31 26.151 245.553C26.2989 239.069 25.6713 232.535 26.2501 226.1C27.2517 214.966 30.7497 204.66 38.4385 196.116C39.1611 195.314 39.4894 193.85 39.4477 192.713C38.9253 178.472 37.8646 164.236 37.8544 149.997C37.8475 140.334 39.1878 130.662 40.0901 121.009C41.1066 110.133 43.6962 99.5766 47.3429 89.3057C51.639 77.2054 57.2896 65.859 65.4526 55.7556C75.1754 43.7217 87.3026 34.9028 100.595 27.31C111.076 21.3229 122.05 16.5017 133.459 12.7667C176.581 -1.35089 223.395 -0.636249 268.337 0.617217C324.642 3.42415 384.141 10.0813 434.413 38.0485C448.245 45.7434 460.645 55.0011 470.67 67.451C479.374 78.2611 485.784 90.2472 490.031 103.297C494.878 118.189 497.278 133.58 497.033 149.595C497.027 154.776 497.038 159.669 497.043 164.842C496.833 170.436 496.729 175.756 496.393 181.061C496.14 185.039 495.793 189.036 495.076 192.948C494.765 194.639 494.998 195.327 496.37 196.338C505.056 202.734 510.083 211.462 512.316 221.927C512.678 223.624 513.429 225.237 514 226.889C514 235.381 514 243.873 514 252.649C513.406 254.775 512.554 256.578 512.26 258.467C510.575 269.302 506.214 278.535 497.3 285.417C496.169 286.29 496.287 288.78 495.828 291.067C495.832 303.569 495.834 315.524 495.837 327.479C495.823 363.839 495.808 400.199 495.658 437.067C495.425 449.128 495.328 460.681 495.23 472.235C495.21 506.986 495.19 541.736 495.038 576.994C494.812 588.645 494.718 599.789 494.624 610.932ZM349.967 263.895C332.037 262.706 314.121 261.216 296.175 260.384C246.198 258.067 196.249 257.799 146.46 263.847C127.217 266.185 108.086 269.174 89.4824 274.801C79.9064 277.698 70.4779 281.025 62.5807 287.505C58.3837 290.948 56.2551 295.17 56.2802 300.871C56.6033 374.251 56.7742 447.632 56.9813 521.013C56.9923 524.915 56.9827 528.817 56.9827 532.747C100.985 528.841 128.752 565.748 107.767 609.021C108.249 609.177 108.705 609.35 109.175 609.471C118.134 611.778 127.346 613.387 136.002 616.527C153.36 622.822 168.194 632.973 178.291 648.827C189.2 665.956 190.741 684.074 182.511 702.765C176.818 715.694 167.45 725.554 155.943 733.499C152.931 735.579 149.804 737.493 146.111 739.885C146.111 739.885 195.016 739.837 219.469 739.844C297.032 739.865 374.596 739.899 452.159 739.927C454.481 739.928 456.812 740.047 459.123 739.887C464.786 739.493 469.312 735.051 469.876 729.4C470.096 727.193 470.24 724.97 470.253 722.754C470.474 683.795 470.684 644.837 470.868 605.878C471.085 559.956 471.284 514.033 471.475 468.11C471.706 412.699 471.853 357.287 472.239 301.877C472.282 295.782 469.891 291.652 465.089 288.528C463.068 287.213 460.969 285.981 458.794 284.941C445.848 278.75 432.023 275.235 417.984 273.056C395.567 269.576 373.019 266.93 349.967 263.895ZM227.676 165.067C255.731 165.718 283.832 165.598 311.83 167.238C339.813 168.877 367.764 171.706 395.596 175.097C415.283 177.496 434.761 181.628 454.303 185.154C458.652 185.939 462.863 187.472 467.159 188.575C470.625 189.465 471.563 188.829 471.965 185.318C472.24 182.915 472.315 180.489 472.492 178.074C473.76 160.819 473.926 143.592 470.928 126.473C466.057 98.659 452.449 76.6304 427.799 62.0676C408.283 50.5381 387.187 42.9016 365.313 37.3098C339.402 30.6858 312.984 27.5887 286.323 26.2403C250.298 24.4183 214.284 23.4937 178.339 27.5944C153.233 30.4585 129.276 37.1188 107.171 49.6661C94.6091 56.7969 83.0502 65.1312 74.6507 77.1973C63.1184 93.7639 58.4867 112.596 56.4986 132.294C54.729 149.827 55.3389 167.368 56.4089 184.909C56.6696 189.183 57.2038 189.363 61.4223 188.043C71.4165 184.914 81.3445 181.383 91.5476 179.146C136.171 169.36 181.387 164.872 227.676 165.067ZM124.181 855.417C136.747 876.91 149.301 898.41 161.886 919.891C165.143 925.451 168.38 931.03 171.854 936.453C173.702 939.338 175.492 939.418 178.151 937.226C179.785 935.88 181.277 934.363 182.879 932.976C198.883 919.117 217.304 911.593 238.635 913.229C261.826 915.008 283.546 921.587 302.82 935.167C310.32 940.451 312.042 940.072 317.757 932.91C338.638 906.738 359.388 880.461 380.41 854.402C402.003 827.636 424.098 801.265 443.316 772.677C445.81 768.968 448.178 765.174 450.79 761.133C346.352 761.133 242.521 761.133 138.175 761.133C138.971 761.888 139.372 762.293 139.798 762.669C146.361 768.464 151.808 775.133 156.053 782.821C168.545 805.447 162.302 831.112 140.52 845.022C135.141 848.456 129.106 850.864 123.279 853.791C123.38 853.99 123.65 854.521 124.181 855.417ZM173.135 186.291C164.196 187.159 155.234 187.835 146.324 188.93C115.265 192.747 84.7939 198.905 55.8824 211.469C49.7476 214.135 45.7451 218.196 44.6474 224.601C42.654 236.232 42.8915 247.938 45.1855 259.505C46.589 266.582 50.0412 268.616 57.0335 266.95C64.2939 265.221 71.4288 262.921 78.732 261.423C112.466 254.504 146.427 249.188 180.824 246.744C215.024 244.314 249.231 244.647 283.442 245.877C315.121 247.016 346.734 249.276 378.217 253.038C397.951 255.396 417.673 257.901 437.337 260.771C449.106 262.489 460.737 265.134 472.46 267.187C481.641 268.794 486.424 265.919 487.847 256.76C489.059 248.955 489.334 240.922 489.184 233.006C488.942 220.146 484.158 215.043 471.91 211.256C441.24 201.775 409.958 195.227 378.058 192.055C350.957 189.36 323.785 187.078 296.59 185.688C255.641 183.596 214.65 183.316 173.135 186.291Z" fill="#1D3F64"/>
<path d="M496.05 327.323C495.835 315.524 495.833 303.569 495.834 291.327C496.019 291.366 496.361 291.691 496.36 292.017C496.348 303.734 496.303 315.451 496.05 327.323Z" fill="#476381"/>
<path d="M38.9897 437.403C39.1686 438.206 39.4557 439.286 39.4609 440.367C39.5121 451.007 39.5164 461.647 39.5197 472.576C39.2998 471.832 38.9176 470.801 38.9158 469.768C38.8977 459.073 38.9409 448.377 38.9897 437.403Z" fill="#3E5C7C"/>
<path d="M495.443 472.08C495.328 460.681 495.425 449.128 495.624 437.354C495.702 448.731 495.679 460.327 495.443 472.08Z" fill="#466280"/>
<path d="M494.837 610.776C494.718 599.789 494.812 588.645 495.004 577.283C495.085 588.25 495.067 599.435 494.837 610.776Z" fill="#466280"/>
<path d="M38.6737 292.442C38.8927 297.56 38.8975 302.826 38.8951 308.376C38.6945 306.623 38.3723 304.589 38.3368 302.551C38.279 299.232 38.4088 295.911 38.6737 292.442Z" fill="#5C7590"/>
<path d="M350.247 263.913C373.02 266.93 395.567 269.576 417.985 273.056C432.024 275.235 445.848 278.75 458.795 284.941C460.969 285.981 463.068 287.213 465.09 288.528C469.891 291.653 472.282 295.782 472.239 301.877C471.853 357.287 471.706 412.699 471.475 468.11C471.284 514.033 471.086 559.956 470.869 605.878C470.684 644.837 470.475 683.795 470.253 722.754C470.24 724.97 470.096 727.193 469.876 729.4C469.312 735.051 464.786 739.493 459.123 739.887C456.812 740.047 454.481 739.928 452.159 739.927C374.596 739.899 297.033 739.865 219.469 739.844C196.342 739.838 173.214 739.87 150.087 739.885C149.006 739.885 147.925 739.885 146.111 739.885C149.804 737.493 152.931 735.579 155.943 733.499C167.45 725.554 176.818 715.694 182.511 702.765C190.741 684.074 189.201 665.956 178.292 648.827C168.194 632.973 153.36 622.822 136.002 616.527C127.346 613.388 118.134 611.778 109.175 609.471C108.705 609.35 108.249 609.177 107.767 609.021C128.752 565.748 100.985 528.841 56.983 532.747C56.983 528.817 56.9926 524.915 56.9816 521.013C56.7745 447.632 56.6036 374.251 56.2805 300.871C56.2554 295.17 58.384 290.948 62.581 287.505C70.4782 281.025 79.9067 277.698 89.4827 274.801C108.086 269.174 127.217 266.185 146.46 263.847C196.25 257.799 246.199 258.067 296.175 260.384C314.122 261.216 332.038 262.706 350.247 263.913Z" fill="#F9C537"/>
<path d="M227.373 165.067C181.387 164.872 136.171 169.36 91.5478 179.146C81.3448 181.383 71.4167 184.914 61.4225 188.043C57.204 189.363 56.6699 189.183 56.4092 184.909C55.3391 167.368 54.7292 149.827 56.4988 132.294C61.5013 91.1993 73.4888 68.1465 107.172 49.6661C129.455 37.4399 153.233 30.4585 178.339 27.5944C214.284 23.4937 250.298 24.4183 286.323 26.2403C312.984 27.5887 339.402 30.6858 365.314 37.3098C387.188 42.9016 408.284 50.5381 427.799 62.0676C452.449 76.6304 466.057 98.659 470.928 126.473C473.926 143.592 473.76 160.819 472.492 178.074C472.315 180.489 472.24 182.915 471.965 185.318C471.564 188.829 470.625 189.465 467.159 188.575C462.863 187.472 458.652 185.939 454.303 185.154C434.762 181.628 415.283 177.496 395.597 175.097C367.764 171.706 339.814 168.877 311.83 167.238C283.832 165.598 255.731 165.718 227.373 165.067Z" fill="#F58AA7"/>
<path d="M124.05 855.235C123.65 854.521 123.379 853.99 123.278 853.791C129.106 850.864 135.141 848.457 140.519 845.022C162.302 831.112 168.545 805.447 156.052 782.821C151.808 775.133 146.361 768.464 139.798 762.669C139.371 762.292 138.97 761.888 138.175 761.133C242.521 761.133 346.352 761.133 450.79 761.133C448.178 765.174 445.809 768.968 443.316 772.677C424.098 801.265 402.003 827.636 380.41 854.402C359.388 880.461 338.638 906.738 317.756 932.91C312.041 940.072 310.319 940.451 302.82 935.167C283.545 921.587 261.826 915.008 238.635 913.229C217.304 911.593 198.883 919.117 182.879 932.976C181.277 934.363 179.785 935.88 178.151 937.226C175.491 939.418 173.702 939.338 171.854 936.453C168.379 931.03 165.143 925.451 161.886 919.891C149.301 898.41 136.746 876.91 124.05 855.235Z" fill="#F9C67B"/>
<path d="M173.417 186.28C214.65 183.316 255.641 183.596 296.59 185.688C323.785 187.078 350.957 189.36 378.058 192.055C409.958 195.227 441.239 201.775 471.909 211.256C484.158 215.043 488.941 220.146 489.184 233.006C489.333 240.922 489.059 248.955 487.847 256.76C486.424 265.919 481.641 268.794 472.46 267.187C460.736 265.134 449.106 262.489 437.337 260.771C417.673 257.901 397.95 255.396 378.216 253.038C346.734 249.276 315.121 247.016 283.442 245.877C249.231 244.647 215.024 244.314 180.824 246.744C146.427 249.188 112.465 254.504 78.7319 261.423C71.4286 262.921 64.2938 265.221 57.0334 266.95C50.0411 268.616 46.5889 266.582 45.1854 259.505C42.8914 247.938 42.6539 236.232 44.6472 224.601C45.745 218.196 49.7474 214.135 55.8823 211.469C84.7938 198.905 115.264 192.747 146.324 188.93C155.234 187.835 164.196 187.159 173.417 186.28Z" fill="#48A5C4"/>
<path d="M497.033 149.595C497.234 150.819 497.559 152.327 497.579 153.84C497.623 157.309 497.518 160.779 497.261 164.406C497.038 159.669 497.027 154.776 497.033 149.595Z" fill="#456180"/>
<path d="M250.857 483.286C270.661 486.843 288.043 482.856 302.947 469.066C306.644 465.646 311.245 462.907 315.873 460.85C325.727 456.471 336.154 463.012 337.564 474.013C338.611 482.18 335.731 489.101 330.462 495.126C314.152 513.778 293.686 523.836 268.828 524.91C250.195 525.716 232.532 522.481 217.074 511.593C210.285 506.812 203.782 501.305 198.249 495.141C191.241 487.333 188.497 478.067 193.758 467.808C197.911 459.71 205.964 456.534 214.081 460.672C218.221 462.783 222.126 465.741 225.429 469.029C232.572 476.139 240.784 481.028 250.857 483.286Z" fill="#1D3F64"/>
<path d="M136.415 372.437C138.946 368.302 140.974 364.045 143.884 360.515C153.858 348.421 169.045 347.909 180.11 359.023C186.409 365.35 189.816 373.12 190.764 381.883C191.984 393.173 191.257 404.26 185.734 414.536C182.613 420.343 178.409 425.221 172.394 428.143C162.15 433.118 150.409 430.22 142.89 420.707C132.053 406.994 130.12 388.598 136.415 372.437Z" fill="#1D3F64"/>
<path d="M338.681 381.635C340.802 371.976 344.889 363.688 352.414 357.43C362.19 349.299 374.139 349.705 382.799 358.966C396.199 373.295 397.961 390.152 392.28 408.236C390.488 413.941 387.811 419.236 383.455 423.544C372.872 434.012 357.289 433.274 347.828 421.771C338.154 410.009 336.101 396.471 338.681 381.635Z" fill="#1D3F64"/>
<path d="M1515.22 123.208C1530.85 123.208 1549.39 125.645 1563.28 137.237C1576.39 148.04 1580.98 163.16 1581.64 176.775C1582.02 180.878 1582.14 185.848 1582.14 191.054V262.35C1582.9 261.719 1583.69 261.128 1584.52 260.578L1588.98 257.598C1600.63 248.754 1615.4 240.45 1631.97 240.449C1643.69 240.449 1653.42 245.241 1660.56 250.379C1667.61 255.456 1673.85 262.076 1679.39 269.136C1684.85 275.778 1689.69 282.592 1693.29 289.466C1696.78 296.14 1700.2 304.914 1700.2 314.834C1700.2 326.044 1695.73 335.37 1691.08 342.163C1686.41 348.987 1680.31 355.085 1673.82 360.533L1673.83 360.533L1657.14 374.696L1688.36 400.526L1688.53 400.667C1695.18 406.257 1703.41 413.665 1708.23 421.861C1712.18 428.243 1715.45 436.441 1715.45 446.023C1715.45 455.459 1712.5 464.008 1709.24 470.853C1707.53 474.435 1705.51 478.012 1703.25 481.571C1706.87 482.262 1710.4 483.186 1713.8 484.395C1723.82 487.959 1734.8 494.863 1741.07 507.467C1744.23 513.502 1746.98 520.622 1747.88 528.499C1748.76 534.121 1748.99 540.702 1748.99 547.188C1748.99 553.951 1748.73 560.587 1747.87 566.277C1747.58 568.759 1747.1 571.162 1746.47 573.469C1750.65 569.051 1755.15 564.946 1759.96 561.183C1788.44 538.575 1820.27 526.268 1854.86 526.268C1868.6 526.268 1882.06 528.246 1895.16 532.211C1905.82 535.19 1916.01 538.739 1924.07 543.337L1924.86 543.79L1925.52 544.195L1932.49 548.553L1933.2 549.017C1937.17 551.665 1940.57 553.96 1943.35 555.878L1945.94 557.67L1946.47 558.051C1946.64 558.18 1946.81 558.311 1946.99 558.444C1947.36 558.729 1947.73 559.019 1948.09 559.313C1951.99 554.975 1956.43 550.958 1961.44 547.307C1984.37 530.594 2015.22 524.524 2049.36 524.524C2073.92 524.524 2098.39 530.243 2122.56 540.889L2124.9 541.935L2124.98 541.973C2138.6 548.205 2157.17 561.488 2157.17 585.833C2157.17 600.945 2150.58 615.156 2143.14 627.01C2140.81 630.725 2137.85 634.912 2134.19 638.92C2142.69 645.712 2149.44 654.321 2154.7 663.901C2163.66 679.357 2167.18 697.188 2167.18 715.714C2167.18 734.423 2163.6 752.244 2155.12 768.066L2155.12 768.067C2146.93 783.602 2134.86 795.827 2119.22 803.879C2119.02 803.985 2118.81 804.09 2118.6 804.191C2094.92 815.675 2066.89 820.608 2035.87 820.608C2002.06 820.608 1969.95 810.655 1939.97 791.788C1937.49 793.575 1934.97 795.234 1932.46 796.767C1910.35 812.01 1884.23 818.864 1855.73 818.865C1821.21 818.865 1789.12 806.259 1759.98 783.528C1759.98 783.522 1759.97 783.516 1759.96 783.511C1755.49 780.012 1751.29 776.22 1747.36 772.155C1746.1 778.749 1743.57 784.692 1740.96 789.647C1734.45 802.392 1723.08 809.004 1713.26 812.324C1703.47 815.633 1692.51 816.685 1681.67 816.685C1670.84 816.685 1659.85 815.573 1649.97 812.106C1643.82 809.946 1637.35 806.575 1631.77 801.467C1626.2 806.614 1619.71 809.975 1613.65 812.106C1603.74 815.586 1592.65 816.685 1581.74 816.685C1570.84 816.685 1559.73 815.525 1549.73 811.885C1539.39 808.119 1528.54 800.988 1522.26 788.419C1522.15 788.185 1522.03 787.95 1521.92 787.713C1520.15 783.911 1518.5 779.827 1517.26 775.575C1515.88 780.65 1513.83 785.261 1511.74 789.235V789.236C1511.69 789.335 1511.63 789.435 1511.58 789.534L1511.58 789.533C1505.04 801.937 1493.98 808.662 1483.93 812.145C1474.02 815.58 1462.96 816.685 1452.02 816.685C1441.12 816.685 1430.01 815.525 1420.02 811.885C1409.67 808.119 1398.83 800.988 1392.55 788.419C1392.43 788.185 1392.32 787.95 1392.21 787.713C1390.47 783.972 1388.85 779.957 1387.6 775.779C1386.19 781.072 1384.05 785.869 1381.87 789.97C1381.71 790.255 1381.56 790.537 1381.4 790.817C1374.55 802.707 1363.58 809.059 1353.69 812.361C1343.93 815.616 1333.09 816.685 1322.31 816.685C1311.48 816.685 1300.49 815.573 1290.62 812.106C1282.35 809.204 1273.51 804.117 1267.03 795.567C1260.14 802.142 1251.98 806.908 1243.62 810.408C1222.77 819.127 1194.94 822.351 1162.89 822.351C1138.14 822.351 1114.97 818.156 1093.95 809.081C1093.76 809.001 1093.58 808.918 1093.39 808.834C1075.7 800.755 1060.39 789.992 1048.33 776.153C1046.89 781.146 1044.78 785.647 1042.59 789.535L1042.59 789.536C1042.53 789.638 1042.47 789.74 1042.42 789.841L1042.42 789.84C1035.3 802.423 1023.52 808.754 1013.49 811.944C1003.34 815.171 991.865 816.248 980.222 816.248C967.322 816.248 953.297 814.046 941.246 806.367C941.132 806.295 941.018 806.219 940.904 806.146C927.302 812.739 912.017 815.813 895.777 815.813C860.167 815.813 829.14 799.989 803.34 772.759C803.298 772.714 803.255 772.669 803.213 772.624C802.262 771.608 801.328 770.584 800.41 769.553C799.412 776.237 797.135 782.416 794.666 787.713C794.432 788.216 794.183 788.712 793.92 789.2C781.577 812.152 755.795 815.813 738.335 815.813C729.491 815.813 721.095 815.292 713.551 813.947C706.754 812.735 698.648 810.517 691.341 805.841C677.048 812.831 660.618 815.813 643.443 815.813C608.491 815.813 578.069 799.392 552.62 772.189C526.336 744.093 512.569 710.488 512.569 672.566C512.569 634.419 526.293 600.727 552.746 572.808L552.753 572.8C578.68 545.455 609.672 529.318 645.185 529.318C658.524 529.318 671.469 531.69 683.604 536.898C685.857 537.865 688.175 538.914 690.498 540.06C702.969 531.374 717.787 528.882 731.371 528.882C743.386 528.882 755.456 529.716 765.355 532.846C776.695 536.431 787.656 543.917 793.883 556.692C796.799 562.289 799.36 568.813 800.417 576.006C801.333 574.978 802.264 573.956 803.213 572.942L803.346 572.8C829.273 545.455 860.265 529.318 895.777 529.318C903.048 529.318 910.11 529.967 916.899 531.296C916.981 527.751 917.127 524.572 917.37 521.893L917.424 521.355C917.483 520.817 917.558 520.281 917.646 519.747C917.994 517.657 918.456 515.607 919.01 513.602C917.747 513.129 916.498 512.62 915.269 512.065C903.227 506.629 892.787 496.91 888.261 482.441C885.046 472.901 884.236 461.781 884.236 451.253V374.545C884.236 371.398 883.774 369.651 883.473 368.846C883.216 368.16 882.983 367.879 882.73 367.637C882.582 367.495 882.434 367.351 882.288 367.205C882.243 367.158 881.141 365.682 875.353 365.682C870.818 365.682 868.973 366.776 867.802 367.829C867.085 368.588 866.034 370.078 866.034 374.545V451.69C866.034 458.458 865.777 465.1 864.914 470.794C863.977 478.724 861.042 485.74 857.858 491.469C851.481 503.886 840.488 510.62 830.601 514.088C820.686 517.566 809.598 518.664 798.678 518.664C787.842 518.664 776.851 517.553 766.974 514.088C757.813 510.875 747.938 504.976 741.351 494.649C736.242 499.167 730.539 503.07 724.263 506.299C724.057 506.405 723.849 506.508 723.641 506.609C699.948 518.09 671.901 523.023 640.859 523.023C606.998 523.023 574.837 513.055 544.818 494.158C544.805 494.15 544.79 494.14 544.776 494.131C529.397 484.413 522.968 468.694 522.968 452.996C522.968 442.838 526.458 433.44 529.979 426.118C533.653 418.476 538.689 410.425 544.607 402.126C546.764 398.906 549.195 396.123 551.832 393.743C548.156 388.84 544.944 383.541 542.154 377.959C542.11 377.87 542.066 377.78 542.022 377.691C534.192 361.611 530.809 343.711 530.809 324.859C530.809 294.476 541.738 267.672 566.391 249.714C589.327 233.006 620.197 226.939 654.364 226.939C678.931 226.939 703.416 232.657 727.604 243.301L729.943 244.346L730.026 244.384C734.226 246.305 738.899 248.897 743.354 252.278C750.21 243.137 759.729 238.142 768.051 235.439C777.676 232.312 788.419 231.297 799.113 231.297C809.442 231.297 819.786 232.23 829.071 235.078C834.119 236.627 839.775 239.044 845.027 242.843C858.279 235.198 872.908 231.297 888.423 231.297C925.954 231.297 957.979 246.201 982.546 274.741C989.327 282.444 995.14 290.621 1000 299.229C1005.3 290.815 1011.55 282.801 1018.74 275.214L1018.75 275.206C1044.7 247.862 1075.71 231.733 1111.24 231.733C1124.58 231.733 1137.53 234.104 1149.67 239.309C1151.93 240.279 1154.26 241.332 1156.59 242.482C1169.07 233.79 1183.9 231.297 1197.49 231.297C1209.52 231.297 1221.59 232.131 1231.49 235.259C1242.84 238.843 1253.81 246.329 1260.04 259.117C1262.51 263.863 1264.73 269.275 1266 275.197C1269.95 271.091 1274.17 267.262 1278.67 263.731C1307.21 241.036 1339.13 228.683 1373.8 228.683C1387.55 228.683 1401.02 230.66 1414.12 234.624C1424.79 237.603 1434.99 241.15 1443.06 245.746L1443.84 246.199L1444.5 246.605L1447.86 248.704V190.618C1447.86 183.783 1448 177.746 1448.42 173.167L1448.47 172.628C1448.53 172.09 1448.6 171.554 1448.69 171.02C1449.83 164.19 1452.17 157.685 1454.95 151.736L1455.21 151.189C1455.3 151.008 1455.39 150.827 1455.48 150.648C1462.01 138.053 1473.17 131.254 1483.3 127.746C1493.21 124.313 1504.27 123.208 1515.22 123.208ZM1933.7 667.472C1930.76 669.773 1927.5 671.931 1923.94 673.762C1926.25 675.085 1928.39 676.502 1930.35 677.928C1935.8 681.89 1941.01 686.748 1946 692.171C1946.3 691.886 1946.6 691.605 1946.9 691.33C1943.22 686.424 1940.01 681.121 1937.22 675.535C1937.18 675.446 1937.14 675.356 1937.09 675.267C1935.85 672.713 1934.72 670.114 1933.7 667.472ZM1855.3 662.396C1853.42 662.396 1850.8 662.882 1846.81 666.185C1846.05 666.814 1844.71 667.784 1844.71 673.002C1844.71 677.509 1845.74 678.796 1846.51 679.484C1850.23 682.491 1852.4 682.736 1853.56 682.736C1857.02 682.736 1859.99 681.869 1863.12 679.784C1866.67 677.376 1870.81 674.808 1875.38 672.584C1870.71 670.336 1866.36 667.786 1862.49 665.349C1861.23 664.559 1860.04 663.673 1858.92 662.701C1858.34 662.574 1857.19 662.396 1855.3 662.396ZM906.659 663.703C902.712 663.703 901.778 664.657 900.834 665.76C900.721 665.892 900.606 666.024 900.49 666.155C897.764 669.225 897.374 671.226 897.374 673.002C897.374 674.038 897.473 675.771 900.575 678.997C902.731 681.238 904.36 681.864 907.095 681.864C909.772 681.864 910.651 681.32 911.958 679.848C912.088 679.701 912.22 679.555 912.354 679.41C915.439 676.073 915.511 674.318 915.511 673.437C915.511 671.609 915.072 669.291 912.05 665.76C911.918 665.606 911.787 665.451 911.658 665.294C911.037 664.538 910.665 664.353 910.435 664.25C910.122 664.111 909.048 663.703 906.659 663.703ZM656.066 663.267C652.811 663.267 651.491 664 650.067 665.533C647.203 668.948 646.78 671.21 646.78 673.002C646.78 674.016 646.878 675.698 649.797 678.798C651.777 680.719 653.506 681.427 656.502 681.427C659.179 681.427 660.058 680.885 661.365 679.412L661.762 678.975C664.846 675.639 664.918 673.884 664.918 673.002C664.918 671.174 664.479 668.856 661.456 665.324C661.324 665.171 661.195 665.014 661.066 664.858C660.446 664.101 660.072 663.916 659.842 663.814C659.529 663.675 658.454 663.267 656.066 663.267ZM1266.13 474.47C1264.99 480.199 1262.98 485.505 1260.82 490.136C1260.58 490.639 1260.33 491.136 1260.07 491.625C1247.72 514.572 1221.93 518.228 1204.46 518.228C1195.62 518.228 1187.22 517.707 1179.67 516.363C1172.86 515.15 1164.75 512.932 1157.43 508.249C1143.13 515.244 1126.68 518.228 1109.49 518.228C1084.14 518.228 1061.16 509.595 1040.73 494.477C1041.47 496.408 1042.27 498.33 1043.18 500.198C1046.3 506.2 1049.02 513.268 1049.91 521.081C1050.8 526.705 1051.03 533.288 1051.03 539.778V568.592C1052.26 567.363 1053.52 566.15 1054.81 564.954C1084.48 537.422 1121.34 524.088 1163.33 524.088C1202.6 524.088 1236.29 535.824 1261.09 560.973C1261.96 559.112 1262.89 557.318 1263.86 555.595C1276.46 532.883 1301.95 528.882 1320.13 528.882C1329.58 528.882 1338.83 529.618 1347.21 531.688C1353.27 533.184 1360.35 535.736 1366.79 540.391C1378.92 532.816 1392.82 528.447 1408.5 528.447C1435.01 528.447 1457.96 536.452 1476.18 552.001C1481.45 548.045 1487.28 544.392 1493.36 540.984C1507.15 532.926 1522.23 528.447 1538.21 528.447C1568.44 528.447 1594.59 540.008 1615.13 561.814C1614.88 557.554 1614.78 552.443 1614.78 546.751C1614.78 539.916 1614.92 533.881 1615.33 529.303L1615.39 528.765C1615.45 528.227 1615.52 527.69 1615.61 527.157C1616.38 522.544 1617.7 518.13 1619.35 513.955C1613.97 511.087 1608.59 507.553 1603.3 503.637L1599.22 500.779C1598.59 500.336 1597.97 499.869 1597.38 499.377C1592.41 495.274 1586.05 489.519 1578.41 482.278C1577.16 485.852 1575.64 489.147 1574.08 492.092C1567.56 504.824 1556.2 511.427 1546.38 514.742C1536.6 518.049 1525.63 519.1 1514.78 519.1C1503.95 519.1 1492.96 517.989 1483.08 514.524C1473.96 511.324 1464.13 505.463 1457.54 495.218C1455.52 496.624 1453.48 497.945 1451.45 499.185C1429.32 514.426 1403.2 521.28 1374.68 521.28C1340.14 521.279 1308.03 508.679 1278.87 485.95C1278.86 485.945 1278.86 485.939 1278.85 485.934C1274.33 482.405 1270.09 478.576 1266.13 474.47ZM1374.24 364.811C1372.34 364.811 1369.71 365.303 1365.72 368.608C1364.96 369.24 1363.62 370.209 1363.62 375.417C1363.62 379.915 1364.65 381.199 1365.42 381.889C1369.15 384.9 1371.33 385.151 1372.5 385.151C1375.98 385.151 1378.97 384.278 1382.12 382.179C1385.67 379.777 1389.79 377.217 1394.35 375C1389.68 372.754 1385.34 370.206 1381.46 367.77C1380.2 366.979 1379.01 366.092 1377.89 365.119C1377.31 364.991 1376.15 364.811 1374.24 364.811ZM1122.13 365.682C1118.85 365.682 1117.52 366.423 1116.09 367.962C1113.23 371.376 1112.81 373.633 1112.81 375.417C1112.81 376.423 1112.9 378.101 1115.82 381.199C1117.81 383.127 1119.55 383.842 1122.56 383.842C1125.26 383.842 1126.15 383.293 1127.46 381.819L1127.85 381.381C1130.94 378.043 1131.01 376.291 1131.01 375.417C1131.01 373.597 1130.57 371.281 1127.55 367.749C1127.42 367.595 1127.29 367.439 1127.16 367.283C1126.54 366.526 1126.16 366.338 1125.92 366.233C1125.61 366.091 1124.52 365.682 1122.13 365.682ZM1447.86 373.326C1446.29 374.339 1444.65 375.296 1442.93 376.178C1444.67 377.176 1446.32 378.227 1447.86 379.295V373.326Z" fill="#1C3E64"/>
<path d="M560.263 469.559C554.745 466.072 551.986 460.552 551.986 452.997C551.986 445.442 557.504 433.965 568.541 418.565C571.735 413.626 576.818 411.156 583.789 411.156C591.049 411.156 600.779 414.788 612.977 422.052C625.176 429.025 636.212 432.512 646.087 432.512C663.803 432.512 672.662 429.025 672.662 422.052C672.662 416.531 662.932 412.463 643.473 409.848C625.176 407.233 607.023 400.405 589.016 389.364C580.594 384.133 573.623 375.998 568.105 364.956C562.587 353.624 559.828 340.258 559.828 324.859C559.828 278.95 591.34 255.995 654.364 255.995C674.985 255.995 696.187 260.935 717.97 270.814C728.135 275.463 733.218 281.274 733.218 288.248C733.218 295.221 730.023 303.793 723.633 313.963C717.244 324.132 710.709 329.217 704.029 329.217C700.544 329.217 694.009 327.038 684.424 322.679C675.13 318.321 664.965 316.142 653.929 316.142C636.793 316.142 628.225 319.338 628.225 325.73C628.225 334.447 638.1 340.113 657.85 342.728C677.018 344.762 695.606 350.283 713.613 359.29C722.036 363.358 729.006 370.477 734.524 380.647C740.333 390.526 743.238 403.02 743.238 418.129C743.238 433.239 740.333 446.169 734.524 456.919C729.006 467.38 721.164 475.225 710.999 480.455C692.411 489.463 669.031 493.966 640.859 493.966C612.977 493.966 586.112 485.831 560.263 469.559ZM888.422 260.354C917.466 260.354 941.572 271.54 960.741 293.914C980.2 315.996 989.929 343.019 989.929 374.981V451.689C989.929 458.372 989.639 463.457 989.058 466.944C988.768 470.14 987.606 473.772 985.573 477.84C981.507 485.685 970.18 489.608 951.592 489.608C930.971 489.608 919.063 484.232 915.868 473.482C914.126 468.542 913.255 461.133 913.255 451.254V374.545C913.255 362.632 909.769 353.334 902.799 346.651C896.119 339.968 886.97 336.626 875.353 336.626C864.026 336.626 854.732 340.113 847.471 347.087C840.5 354.06 837.015 363.213 837.015 374.545V451.689C837.015 458.372 836.725 463.457 836.144 466.944C835.854 470.14 834.547 473.772 832.223 477.84C828.447 485.685 817.266 489.608 798.678 489.608C780.38 489.608 769.199 485.685 765.132 477.84C763.099 473.482 761.792 469.704 761.212 466.508C760.921 463.021 760.776 457.936 760.776 451.254V296.965C760.776 290.572 760.921 285.778 761.212 282.582C761.792 279.095 763.245 275.318 765.568 271.25C769.634 263.986 780.816 260.354 799.113 260.354C816.83 260.354 827.721 263.695 831.787 270.378C834.692 275.318 836.144 281.274 836.144 288.248C837.306 286.214 839.92 283.308 843.986 279.531C848.052 275.753 851.973 272.703 855.748 270.378C865.623 263.695 876.514 260.354 888.422 260.354ZM1163.08 284.761C1164.82 268.489 1176.29 260.354 1197.49 260.354C1208.82 260.354 1217.24 261.225 1222.76 262.969C1228.28 264.712 1232.06 267.763 1234.09 272.121C1236.41 276.48 1237.72 280.402 1238.01 283.889C1238.59 287.085 1238.88 292.025 1238.88 298.708V451.254C1238.88 457.936 1238.59 463.021 1238.01 466.508C1237.72 469.704 1236.56 473.482 1234.52 477.84C1230.46 485.395 1220.44 489.172 1204.46 489.172C1188.78 489.172 1178.18 487.283 1172.66 483.506C1167.43 479.438 1164.38 473.627 1163.51 466.072C1152.77 481.472 1134.76 489.172 1109.49 489.172C1084.51 489.172 1061.28 477.695 1039.79 454.74C1018.3 431.786 1007.55 405.199 1007.55 374.981C1007.55 344.472 1018.3 317.885 1039.79 295.221C1061.57 272.267 1085.39 260.79 1111.23 260.79C1121.11 260.79 1130.11 262.533 1138.25 266.02C1146.38 269.506 1152.04 272.848 1155.24 276.044C1158.43 278.95 1161.04 281.855 1163.08 284.761ZM1083.79 375.417C1083.79 385.005 1087.56 393.722 1095.12 401.567C1102.67 409.122 1111.82 412.899 1122.56 412.899C1133.31 412.899 1142.17 408.977 1149.14 401.131C1156.4 393.286 1160.03 384.715 1160.03 375.417C1160.03 365.828 1156.54 356.966 1149.57 348.83C1142.89 340.694 1133.74 336.626 1122.13 336.626C1110.8 336.626 1101.51 340.694 1094.24 348.83C1087.27 356.966 1083.79 365.828 1083.79 375.417ZM1334.6 375.417C1334.6 387.62 1338.66 397.209 1346.79 404.182C1354.93 410.865 1363.49 414.207 1372.5 414.207C1381.79 414.207 1390.36 411.592 1398.2 406.362C1406.33 400.841 1412.87 398.08 1417.81 398.08C1426.52 398.08 1437.12 405.78 1449.61 421.18C1456.29 429.607 1459.63 437.161 1459.63 443.844C1459.63 454.886 1451.64 465.201 1435.67 474.789C1419.11 486.412 1398.78 492.223 1374.68 492.223C1347.67 492.223 1321.67 482.489 1296.69 463.021C1284.79 453.723 1275.06 441.374 1267.51 425.975C1259.95 410.284 1256.18 393.141 1256.18 374.545C1256.18 355.658 1259.95 338.66 1267.51 323.551C1275.06 308.151 1284.79 295.802 1296.69 286.504C1320.8 267.327 1346.5 257.739 1373.8 257.739C1384.84 257.739 1395.59 259.337 1406.04 262.533C1416.5 265.439 1424.2 268.344 1429.13 271.25L1436.1 275.608C1441.33 279.095 1445.4 281.855 1448.3 283.889C1455.85 289.701 1459.63 296.383 1459.63 303.938C1459.63 311.202 1456.58 319.483 1450.48 328.781C1440.02 344.762 1430 352.753 1420.42 352.753C1414.9 352.753 1407.06 349.556 1396.89 343.164C1391.67 338.225 1384.12 335.755 1374.24 335.755C1364.66 335.755 1355.65 339.241 1347.23 346.215C1338.81 353.189 1334.6 362.922 1334.6 375.417ZM1611.93 374.981L1669.87 422.924C1677.13 429.025 1681.63 433.674 1683.38 436.871C1685.41 440.067 1686.43 443.118 1686.43 446.023C1686.43 452.997 1681.92 462.44 1672.92 474.353C1663.05 486.557 1654.33 492.659 1646.78 492.659C1640.39 492.659 1631.53 488.446 1620.21 480.019L1615.85 476.968C1609.17 471.448 1598.86 461.859 1584.92 448.203C1570.98 434.256 1560.38 424.376 1553.12 418.565V452.125C1553.12 458.808 1552.83 463.893 1552.25 467.38C1551.95 470.576 1550.65 474.353 1548.32 478.712C1544.55 486.266 1533.37 490.044 1514.78 490.044C1496.49 490.044 1485.3 486.121 1481.24 478.276C1479.2 473.917 1477.9 470.14 1477.32 466.944C1477.03 463.457 1476.88 458.372 1476.88 451.689V190.619C1476.88 183.936 1477.03 178.996 1477.32 175.8C1477.9 172.313 1479.2 168.39 1481.24 164.032C1485.3 156.187 1496.63 152.264 1515.22 152.264C1529.16 152.264 1539.03 154.734 1544.84 159.674C1549.78 163.741 1552.39 170.134 1552.68 178.851C1552.97 181.466 1553.12 185.534 1553.12 191.054V329.217C1558.34 324.859 1566.19 317.449 1576.64 306.989C1587.39 296.529 1595.37 289.119 1600.6 284.761L1605.83 281.274C1616 273.429 1624.71 269.506 1631.97 269.506C1639.23 269.506 1647.51 275.463 1656.8 287.376C1666.39 298.999 1671.18 308.151 1671.18 314.834C1671.18 321.517 1665.81 329.362 1655.06 338.37L1611.93 374.981Z" fill="white"/>
<path d="M696.983 582.346C698.725 566.074 710.187 557.938 731.371 557.938C742.688 557.938 751.103 558.81 756.617 560.554C762.131 562.297 765.903 565.348 767.934 569.706C770.256 574.065 771.562 577.987 771.852 581.474C772.432 584.67 772.722 589.61 772.722 596.293V748.838C772.722 755.521 772.432 760.606 771.852 764.093C771.562 767.289 770.401 771.066 768.37 775.425C764.307 782.979 754.296 786.757 738.335 786.757C722.665 786.757 712.073 784.868 706.56 781.091C701.336 777.023 698.289 771.212 697.419 763.657C686.682 779.057 668.69 786.757 643.444 786.757C618.488 786.757 595.273 775.28 573.799 752.325C552.325 729.371 541.588 702.784 541.588 672.566C541.588 642.056 552.325 615.47 573.799 592.806C595.563 569.852 619.358 558.374 645.185 558.374C655.051 558.374 664.047 560.118 672.172 563.604C680.298 567.091 685.956 570.433 689.148 573.629C692.34 576.535 694.952 579.44 696.983 582.346ZM617.762 673.001C617.762 682.59 621.535 691.307 629.079 699.152C636.624 706.707 645.765 710.484 656.502 710.484C667.239 710.484 676.09 706.561 683.054 698.716C690.309 690.871 693.936 682.299 693.936 673.001C693.936 663.413 690.454 654.551 683.49 646.415C676.815 638.279 667.674 634.211 656.067 634.211C644.75 634.211 635.464 638.279 628.209 646.415C621.244 654.551 617.762 663.413 617.762 673.001ZM950.188 513.192C952.509 508.833 956.427 505.782 961.94 504.039C967.454 502.296 974.709 501.424 983.704 501.424C992.99 501.424 1000.39 502.296 1005.9 504.039C1011.42 505.782 1015.19 508.833 1017.22 513.192C1019.54 517.55 1020.85 521.473 1021.14 524.96C1021.72 528.156 1022.01 533.095 1022.01 539.778V749.274C1022.01 755.957 1021.72 761.042 1021.14 764.529C1020.85 767.725 1019.54 771.357 1017.22 775.425C1012.87 783.27 1000.54 787.193 980.222 787.193C960.199 787.193 949.027 780.074 946.705 765.836C934.518 779.783 917.542 786.757 895.778 786.757C869.661 786.757 845.865 775.425 824.391 752.761C802.917 729.806 792.181 703.22 792.181 673.001C792.181 642.492 802.917 615.761 824.391 592.806C846.155 569.852 869.951 558.374 895.778 558.374C917.251 558.374 933.937 565.638 945.835 580.167V539.342C945.835 532.66 945.98 527.72 946.27 524.524C946.851 521.037 948.156 517.26 950.188 513.192ZM879.672 699.152C887.217 706.997 896.358 710.92 907.095 710.92C917.832 710.92 926.683 706.997 933.647 699.152C940.902 691.307 944.529 682.735 944.529 673.437C944.529 663.849 941.047 654.986 934.082 646.851C927.408 638.715 918.267 634.647 906.66 634.647C895.052 634.647 885.766 638.715 878.802 646.851C871.837 654.696 868.355 663.413 868.355 673.001C868.355 682.59 872.127 691.307 879.672 699.152ZM1266.92 645.543C1266.92 663.268 1262.43 676.488 1253.43 685.205C1244.72 693.631 1235 697.845 1224.27 697.845H1121.1C1121.1 705.98 1125.89 712.809 1135.47 718.329C1145.04 723.85 1154.62 726.61 1164.2 726.61C1181.03 726.61 1194.23 724.867 1203.81 721.38L1208.6 719.637C1215.56 716.441 1221.36 714.842 1226.01 714.842C1235.29 714.842 1243.27 721.38 1249.95 734.455C1253.72 742.301 1255.61 748.984 1255.61 754.504C1255.61 780.364 1224.7 793.294 1162.89 793.294C1141.42 793.294 1122.27 789.662 1105.43 782.398C1088.89 774.844 1075.98 764.965 1066.69 752.761C1048.41 729.225 1039.27 702.929 1039.27 673.873C1039.27 637.262 1051.02 608.061 1074.53 586.268C1098.32 564.186 1127.92 553.144 1163.33 553.144C1203.66 553.144 1233.26 567.382 1252.12 595.857C1261.99 610.966 1266.92 627.528 1266.92 645.543ZM1175.08 658.183C1186.11 658.183 1191.62 653.534 1191.62 644.236C1191.62 637.553 1189.01 632.177 1183.79 628.109C1178.85 624.042 1171.6 622.008 1162.02 622.008C1152.73 622.008 1143.45 625.93 1134.16 633.775C1124.88 641.33 1120.23 649.466 1120.23 658.183H1175.08ZM1359.31 588.448C1372.95 567.818 1389.34 557.503 1408.5 557.503C1438.09 557.503 1460.15 570.142 1474.66 595.421C1477.85 591.063 1481.62 586.559 1485.98 581.91C1490.62 576.97 1497.87 571.74 1507.74 566.22C1517.61 560.408 1527.76 557.503 1538.21 557.503C1561.42 557.503 1580.87 566.51 1596.54 584.525C1612.21 602.249 1620.04 631.741 1620.04 673.001V749.274C1620.04 755.957 1619.75 761.042 1619.17 764.529C1618.88 767.725 1617.58 771.502 1615.25 775.861C1611.48 783.706 1600.31 787.628 1581.74 787.628C1563.46 787.628 1552.28 783.561 1548.22 775.425C1546.19 771.066 1544.88 767.289 1544.3 764.093C1544.01 760.606 1543.87 755.521 1543.87 748.838V672.566C1543.87 647.287 1534.87 634.647 1516.88 634.647C1506.72 634.647 1499.76 637.989 1495.99 644.672C1492.51 651.354 1490.76 660.798 1490.76 673.001V749.274C1490.76 756.248 1490.47 761.333 1489.89 764.529C1489.6 767.725 1488.3 771.502 1485.98 775.861C1481.91 783.706 1470.6 787.628 1452.02 787.628C1433.74 787.628 1422.57 783.561 1418.51 775.425C1416.48 771.066 1415.17 767.289 1414.59 764.093C1414.3 760.606 1414.15 755.521 1414.15 748.838V672.566C1414.15 647.287 1405.16 634.647 1387.17 634.647C1369.76 634.647 1361.05 647.287 1361.05 672.566V749.71C1361.05 756.393 1360.76 761.478 1360.18 764.965C1359.89 768.161 1358.58 771.938 1356.26 776.296C1351.91 783.851 1340.59 787.628 1322.31 787.628C1304.03 787.628 1292.86 783.706 1288.79 775.861C1286.76 771.502 1285.46 767.725 1284.88 764.529C1284.59 761.333 1284.44 756.248 1284.44 749.274V595.857C1284.44 589.174 1284.59 584.234 1284.88 581.038C1285.46 577.551 1286.91 573.774 1289.23 569.706C1293.58 561.861 1303.88 557.938 1320.13 557.938C1336.38 557.938 1346.98 560.554 1351.91 565.784C1356.84 571.014 1359.31 578.568 1359.31 588.448ZM1643.8 638.618C1643.8 631.935 1643.94 626.996 1644.23 623.799C1644.81 620.313 1646.12 616.39 1648.15 612.032C1652.21 604.477 1663.53 600.7 1682.1 600.7C1696.03 600.7 1705.9 603.169 1711.7 608.109C1716.64 612.177 1719.25 618.424 1719.54 626.85C1719.83 629.756 1719.97 633.969 1719.97 639.49V749.71C1719.97 756.393 1719.68 761.478 1719.1 764.965C1718.81 768.161 1717.51 771.938 1715.18 776.296C1711.41 783.851 1700.24 787.628 1681.67 787.628C1663.39 787.628 1652.21 783.706 1648.15 775.861C1646.12 771.502 1644.81 767.725 1644.23 764.529C1643.94 761.333 1643.8 756.248 1643.8 749.274V638.618ZM1715.18 573.774C1713.15 577.842 1709.38 580.748 1703.87 582.491C1698.35 584.234 1690.95 585.106 1681.67 585.106C1672.67 585.106 1665.42 584.234 1659.9 582.491C1654.39 580.748 1650.47 577.697 1648.15 573.338C1646.12 568.98 1644.81 565.203 1644.23 562.006C1643.94 558.52 1643.8 553.435 1643.8 546.752C1643.8 540.069 1643.94 535.129 1644.23 531.933C1644.81 528.446 1646.12 524.669 1648.15 520.601C1652.21 512.756 1663.53 508.833 1682.1 508.833C1700.38 508.833 1711.41 512.756 1715.18 520.601C1717.51 524.96 1718.81 528.882 1719.1 532.369C1719.68 535.565 1719.97 540.505 1719.97 547.188C1719.97 553.871 1719.68 558.955 1719.1 562.442C1718.81 565.638 1717.51 569.416 1715.18 573.774ZM1815.69 673.001C1815.69 685.205 1819.75 694.794 1827.87 701.767C1836 708.45 1844.56 711.792 1853.56 711.792C1862.84 711.792 1871.4 709.176 1879.24 703.946C1887.36 698.426 1893.89 695.665 1898.83 695.665C1907.53 695.665 1918.12 703.365 1930.6 718.765C1937.27 727.191 1940.61 734.746 1940.61 741.429C1940.61 752.47 1932.63 762.785 1916.67 772.374C1900.13 783.996 1879.82 789.808 1855.73 789.808C1828.74 789.808 1802.77 780.074 1777.82 760.606C1765.92 751.308 1756.2 738.959 1748.65 723.559C1741.11 707.869 1737.34 690.726 1737.34 672.13C1737.34 653.243 1741.11 636.245 1748.65 621.136C1756.2 605.736 1765.92 593.387 1777.82 584.089C1801.9 564.912 1827.58 555.323 1854.86 555.323C1865.89 555.323 1876.63 556.922 1887.07 560.118C1897.52 563.023 1905.21 565.929 1910.14 568.835L1917.11 573.193C1922.33 576.68 1926.39 579.44 1929.29 581.474C1936.84 587.285 1940.61 593.968 1940.61 601.523C1940.61 608.787 1937.57 617.068 1931.47 626.366C1921.02 642.347 1911.01 650.337 1901.44 650.337C1895.92 650.337 1888.09 647.141 1877.93 640.749C1872.71 635.809 1865.16 633.34 1855.3 633.34C1845.72 633.34 1836.72 636.826 1828.31 643.8C1819.89 650.773 1815.69 660.507 1815.69 673.001ZM1955.34 767.144C1949.83 763.657 1947.07 758.136 1947.07 750.582C1947.07 743.027 1952.59 731.55 1963.61 716.15C1966.81 711.21 1971.88 708.741 1978.85 708.741C1986.1 708.741 1995.83 712.373 2008.01 719.637C2020.2 726.61 2031.23 730.097 2041.09 730.097C2058.8 730.097 2067.65 726.61 2067.65 719.637C2067.65 714.116 2057.93 710.048 2038.48 707.433C2020.2 704.818 2002.06 697.99 1984.07 686.948C1975.66 681.718 1968.69 673.583 1963.18 662.541C1957.67 651.209 1954.91 637.843 1954.91 622.443C1954.91 576.535 1986.39 553.58 2049.36 553.58C2069.97 553.58 2091.15 558.52 2112.92 568.399C2123.07 573.048 2128.15 578.859 2128.15 585.833C2128.15 592.806 2124.96 601.378 2118.57 611.547C2112.19 621.717 2105.66 626.802 2098.99 626.802C2095.5 626.802 2088.98 624.623 2079.4 620.264C2070.11 615.906 2059.96 613.727 2048.93 613.727C2031.81 613.727 2023.25 616.923 2023.25 623.315C2023.25 632.032 2033.11 637.698 2052.85 640.313C2072 642.347 2090.57 647.868 2108.56 656.875C2116.98 660.943 2123.94 668.062 2129.46 678.232C2135.26 688.111 2138.16 700.605 2138.16 715.714C2138.16 730.823 2135.26 743.753 2129.46 754.504C2123.94 764.965 2116.11 772.81 2105.95 778.04C2087.38 787.047 2064.02 791.551 2035.87 791.551C2008.01 791.551 1981.17 783.415 1955.34 767.144Z" fill="white"/>
</svg>
