<svg width="530" height="1138" viewBox="0 0 530 1138" fill="none" xmlns="http://www.w3.org/2000/svg">
<path d="M508.207 662.535C508.201 702.155 508.076 741.776 508.236 781.396C508.322 802.63 501.696 821.747 490.469 839.364C483.149 850.851 475.353 862.063 467.255 873.018C461.734 880.486 455.35 887.32 449.304 894.395C443.668 900.99 437.994 907.552 432.285 914.083C429.78 916.948 427.152 919.706 424.571 922.504C417.05 930.655 409.294 938.604 402.063 947.005C394.307 956.017 387.034 965.444 379.568 974.704C370.606 985.819 361.739 997.01 352.689 1008.05C344.866 1017.6 337.091 1027.21 328.802 1036.34C328.802 1036.34 279.198 1090.25 256.464 1117.24C248.757 1125.26 240.432 1132.74 229.573 1136.74C223.186 1139.1 218.338 1136.78 213.717 1133.02C203.634 1124.8 197.027 1113.79 190.3 1102.97C175.611 1079.35 144.827 1034.22 144.827 1034.22L87.7938 939.284C85.864 936.052 84.2642 932.564 82.9715 929.025C80.7441 922.926 83.2909 917.295 89.1885 914.559C96.9685 910.948 104.843 907.531 112.535 903.745C128.594 895.842 135.769 876.296 127.381 859.567C122.372 849.578 114.933 842.011 106.407 835.099C101.831 831.39 97.5701 827.133 93.8478 822.568C88.3154 815.783 89.8331 805.009 96.9891 800.006C101.39 796.929 106.284 794.436 111.213 792.259C119.682 788.52 127.89 784.361 135.205 778.682C143.105 772.548 149.69 765.24 153.816 755.972C156.031 750.998 157.552 745.928 157.945 740.379C159.213 722.424 150.898 709.323 137.673 698.421C124.163 687.284 108.339 681.638 91.4639 678.106C86.6253 677.093 81.8898 675.139 77.4059 672.992C71.3377 670.087 69.9451 664.77 72.3727 656.732C74.4682 649.795 77.1056 642.949 78.4209 635.861C81.9434 616.881 72.8678 600.749 53.2199 596.358C45.7925 594.698 37.8645 595.292 30.1678 594.811C27.4546 594.642 24.7075 594.549 22.0512 594.034C16.737 593.003 14.6814 589.843 14.6728 583.018C14.6487 563.974 14.6641 544.93 14.663 525.886C14.6628 521.728 14.6588 517.569 14.6665 512.795C14.6575 500.641 14.6528 489.102 14.5973 477.563C14.5916 476.391 14.2803 475.219 14.1108 474.048C14.0759 469.24 14.0121 464.432 14.0107 459.624C13.999 418.198 13.9986 376.772 13.9934 334.73C13.9934 334.73 15.8301 314.683 10.0033 305.882C7.01323 301.366 4.54748 296.27 3.0085 291.082C0.63204 283.071 -0.0280957 274.706 0.163796 266.294C0.324191 259.262 -0.356466 252.176 0.27122 245.198C1.3574 233.123 5.15093 221.947 13.4891 212.682C14.2728 211.811 14.6288 210.223 14.5836 208.99C14.0171 193.547 12.8667 178.108 12.8557 162.667C12.8482 152.188 14.3017 141.699 15.2802 131.23C16.3827 119.436 19.191 107.987 23.1456 96.849C27.8046 83.7266 33.9325 71.4219 42.7851 60.465C53.329 47.4147 66.4806 37.8509 80.8957 29.6168C92.2625 23.1239 104.164 17.8955 116.536 13.845C163.3 -1.46499 214.069 -0.689991 262.806 0.669351C323.867 3.71338 388.392 10.9328 442.91 41.2623C457.91 49.6072 471.358 59.6468 482.229 73.1483C491.669 84.8715 498.62 97.8701 503.226 112.022C508.483 128.172 511.085 144.863 510.819 162.231C510.813 167.849 510.825 173.155 510.83 178.766C510.603 184.832 510.49 190.601 510.125 196.355C509.851 200.669 509.474 205.003 508.697 209.246C508.36 211.08 508.612 211.826 510.101 212.922C519.52 219.858 524.972 229.323 527.393 240.673C527.785 242.512 528.6 244.262 529.22 246.054C529.22 255.263 529.22 264.472 529.22 273.989C528.575 276.295 527.651 278.25 527.333 280.299C525.506 292.049 520.776 302.061 511.109 309.525C509.882 310.472 510.01 313.172 509.512 315.653C509.517 329.21 509.52 342.175 509.522 355.14C509.507 394.571 509.491 434.003 509.329 473.984C509.076 487.064 508.97 499.593 508.865 512.123C508.843 549.809 508.821 587.495 508.656 625.731C508.411 638.366 508.309 650.451 508.207 662.535ZM351.331 286.185C331.887 284.895 312.458 283.279 292.996 282.377C238.798 279.865 184.63 279.574 130.634 286.133C109.766 288.668 89.0195 291.911 68.8445 298.013C58.4597 301.154 48.2348 304.762 39.6705 311.789C35.1191 315.524 32.8106 320.102 32.8379 326.284C33.1882 405.862 33.3736 485.442 33.5981 565.021C33.6101 569.252 33.5997 573.484 33.5997 577.746C81.3185 573.51 111.431 613.535 88.6731 660.463C89.1958 660.632 89.6908 660.82 90.2005 660.951C99.9163 663.453 109.906 665.198 119.293 668.602C138.117 675.429 154.204 686.438 165.155 703.631C176.985 722.206 178.656 741.855 169.731 762.125C163.557 776.146 153.398 786.838 140.919 795.455C137.652 797.711 134.261 799.787 130.256 802.38C130.256 802.38 183.292 802.329 209.811 802.336C293.925 802.358 378.04 802.396 462.155 802.426C464.673 802.427 467.201 802.556 469.707 802.382C475.849 801.955 480.757 797.138 481.369 791.009C481.607 788.617 481.763 786.206 481.777 783.802C482.017 741.553 482.245 699.304 482.445 657.055C482.68 607.253 482.895 557.452 483.103 507.65C483.353 447.558 483.512 387.466 483.931 327.376C483.977 320.766 481.384 316.287 476.178 312.899C473.985 311.473 471.709 310.136 469.351 309.009C455.311 302.294 440.319 298.484 425.094 296.12C400.782 292.347 376.331 289.476 351.331 286.185ZM218.71 179.01C249.136 179.716 279.61 179.586 309.972 181.364C340.32 183.141 370.631 186.209 400.815 189.887C422.164 192.488 443.288 196.97 464.48 200.794C469.196 201.645 473.763 203.307 478.422 204.503C482.181 205.468 483.198 204.779 483.634 200.972C483.932 198.365 484.013 195.734 484.206 193.115C485.581 174.403 485.761 155.72 482.51 137.155C477.227 106.992 462.469 83.1031 435.737 67.3102C414.573 54.8069 391.696 46.5254 367.974 40.4612C339.874 33.2777 311.224 29.919 282.311 28.4567C243.244 26.4808 204.187 25.4781 165.207 29.9251C137.98 33.0313 111.999 40.2541 88.0277 53.8612C74.4043 61.5943 61.869 70.6326 52.7601 83.7178C40.2537 101.684 35.2307 122.107 33.0747 143.468C31.1556 162.483 31.8171 181.505 32.9775 200.528C33.2602 205.162 33.8394 205.358 38.4143 203.926C49.2527 200.533 60.0193 196.704 71.0841 194.277C119.476 183.666 168.512 178.798 218.71 179.01ZM106.474 927.671C120.101 950.979 133.716 974.295 147.364 997.591C150.896 1003.62 154.406 1009.67 158.174 1015.55C160.178 1018.68 162.118 1018.77 165.003 1016.39C166.775 1014.93 168.393 1013.29 170.13 1011.78C187.486 996.751 207.463 988.592 230.595 990.366C255.746 992.295 279.3 999.43 300.202 1014.16C308.335 1019.89 310.202 1019.48 316.4 1011.71C339.046 983.327 361.548 954.83 384.346 926.57C407.763 897.543 431.724 868.945 452.565 837.942C455.269 833.919 457.838 829.806 460.67 825.423C347.411 825.423 234.809 825.423 121.65 825.423C122.513 826.242 122.948 826.681 123.41 827.089C130.528 833.373 136.435 840.606 141.038 848.943C154.585 873.48 147.815 901.313 124.193 916.398C118.36 920.122 111.815 922.733 105.495 925.908C105.605 926.123 105.898 926.699 106.474 927.671ZM159.563 202.027C149.869 202.968 140.15 203.701 130.487 204.888C96.8044 209.027 63.76 215.706 32.4065 229.331C25.7534 232.223 21.4129 236.626 20.2224 243.572C18.0607 256.186 18.3183 268.88 20.8061 281.425C22.3281 289.1 26.0719 291.304 33.6548 289.498C41.5284 287.623 49.266 285.129 57.1861 283.504C93.769 276.001 130.599 270.236 167.902 267.586C204.99 264.95 242.086 265.312 279.187 266.646C313.542 267.881 347.826 270.331 381.967 274.411C403.368 276.969 424.756 279.685 446.082 282.798C458.844 284.661 471.457 287.529 484.171 289.755C494.127 291.498 499.314 288.381 500.857 278.448C502.172 269.983 502.47 261.272 502.308 252.687C502.045 238.741 496.857 233.206 483.574 229.1C450.313 218.818 416.389 211.717 381.795 208.277C352.405 205.354 322.938 202.879 293.446 201.372C249.038 199.103 204.585 198.8 159.563 202.027Z" fill="#1D3F64"/>
<path d="M509.753 354.971C509.52 342.175 509.517 329.21 509.518 315.934C509.72 315.976 510.09 316.33 510.09 316.683C510.076 329.389 510.027 342.096 509.753 354.971Z" fill="#476381"/>
<path d="M14.0864 474.349C14.2804 475.219 14.5917 476.391 14.5974 477.563C14.6529 489.102 14.6576 500.641 14.6612 512.493C14.4227 511.686 14.0082 510.567 14.0063 509.448C13.9866 497.849 14.0335 486.25 14.0864 474.349Z" fill="#3E5C7C"/>
<path d="M509.096 511.954C508.97 499.594 509.076 487.064 509.292 474.295C509.377 486.633 509.351 499.209 509.096 511.954Z" fill="#466280"/>
<path d="M508.438 662.366C508.309 650.451 508.411 638.366 508.62 626.044C508.708 637.937 508.688 650.067 508.438 662.366Z" fill="#466280"/>
<path d="M13.7443 317.144C13.9819 322.694 13.987 328.405 13.9844 334.423C13.7669 332.523 13.4174 330.317 13.3789 328.106C13.3163 324.507 13.457 320.905 13.7443 317.144Z" fill="#5C7590"/>
<path d="M351.635 286.205C376.331 289.476 400.782 292.347 425.094 296.12C440.319 298.484 455.311 302.295 469.351 309.009C471.709 310.136 473.985 311.473 476.178 312.899C481.384 316.287 483.977 320.766 483.931 327.376C483.512 387.466 483.353 447.558 483.103 507.65C482.895 557.452 482.68 607.253 482.445 657.055C482.245 699.304 482.017 741.553 481.777 783.802C481.763 786.206 481.607 788.617 481.369 791.009C480.757 797.138 475.849 801.955 469.708 802.382C467.201 802.556 464.673 802.427 462.155 802.426C378.04 802.396 293.925 802.358 209.811 802.336C184.73 802.329 159.649 802.364 134.568 802.38C133.395 802.381 132.223 802.38 130.256 802.38C134.261 799.787 137.652 797.711 140.919 795.455C153.398 786.838 163.557 776.147 169.731 762.125C178.656 741.855 176.985 722.206 165.155 703.631C154.204 686.438 138.117 675.429 119.293 668.602C109.906 665.198 99.9163 663.453 90.2005 660.951C89.6909 660.82 89.1958 660.632 88.6731 660.463C111.431 613.535 81.3185 573.511 33.5997 577.746C33.5997 573.484 33.6101 569.252 33.5982 565.021C33.3736 485.442 33.1883 405.862 32.8379 326.284C32.8107 320.102 35.1191 315.524 39.6706 311.789C48.2348 304.762 58.4597 301.154 68.8445 298.013C89.0195 291.911 109.766 288.668 130.635 286.133C184.63 279.574 238.798 279.865 292.996 282.377C312.458 283.279 331.887 284.895 351.635 286.205Z" fill="#F9C537"/>
<path d="M218.382 179.01C168.512 178.798 119.477 183.666 71.0844 194.277C60.0196 196.704 49.2529 200.533 38.4145 203.926C33.8397 205.358 33.2605 205.162 32.9778 200.528C31.8173 181.505 31.1559 162.483 33.075 143.468C38.5 98.9025 51.5 73.9025 88.0279 53.8612C112.194 40.6024 137.98 33.0313 165.207 29.9251C204.188 25.4781 243.244 26.4808 282.311 28.4567C311.224 29.919 339.874 33.2777 367.974 40.4612C391.696 46.5254 414.574 54.8069 435.738 67.3102C462.469 83.1031 477.227 106.992 482.51 137.155C485.761 155.72 485.581 174.403 484.206 193.115C484.013 195.734 483.933 198.365 483.634 200.972C483.199 204.779 482.181 205.468 478.422 204.503C473.763 203.307 469.197 201.645 464.48 200.794C443.288 196.97 422.164 192.488 400.815 189.887C370.631 186.209 340.32 183.141 309.973 181.364C279.61 179.586 249.136 179.716 218.382 179.01Z" fill="#F58AA7"/>
<path d="M106.333 927.473C105.898 926.699 105.605 926.123 105.495 925.908C111.815 922.733 118.36 920.123 124.193 916.398C147.815 901.314 154.585 873.48 141.038 848.943C136.435 840.606 130.528 833.373 123.41 827.088C122.948 826.681 122.513 826.242 121.65 825.423C234.81 825.423 347.411 825.423 460.67 825.423C457.838 829.806 455.269 833.919 452.565 837.942C431.724 868.945 407.763 897.543 384.346 926.57C361.548 954.83 339.046 983.327 316.4 1011.71C310.203 1019.48 308.335 1019.89 300.202 1014.16C279.3 999.43 255.746 992.295 230.595 990.366C207.463 988.592 187.486 996.751 170.13 1011.78C168.393 1013.29 166.775 1014.93 165.003 1016.39C162.119 1018.77 160.178 1018.68 158.174 1015.55C154.406 1009.67 150.896 1003.62 147.364 997.591C133.716 974.295 120.101 950.98 106.333 927.473Z" fill="#F9C67B"/>
<path d="M159.87 202.015C204.585 198.8 249.039 199.103 293.446 201.373C322.939 202.879 352.405 205.354 381.795 208.277C416.39 211.717 450.314 218.819 483.574 229.1C496.858 233.206 502.045 238.741 502.308 252.687C502.47 261.272 502.172 269.983 500.858 278.448C499.315 288.381 494.128 291.498 484.171 289.755C471.458 287.529 458.845 284.661 446.082 282.798C424.756 279.685 403.368 276.969 381.967 274.411C347.826 270.331 313.542 267.881 279.187 266.646C242.087 265.312 204.991 264.95 167.902 267.586C130.6 270.236 93.7694 276.001 57.1865 283.504C49.2664 285.129 41.5288 287.623 33.6552 289.498C26.0723 291.305 22.3285 289.1 20.8065 281.425C18.3187 268.88 18.0611 256.186 20.2228 243.573C21.4133 236.626 25.7538 232.223 32.4069 229.331C63.7604 215.706 96.8048 209.027 130.488 204.888C140.151 203.701 149.87 202.968 159.87 202.015Z" fill="#48A5C4"/>
<path d="M510.819 162.231C511.037 163.558 511.39 165.194 511.411 166.834C511.459 170.596 511.345 174.36 511.066 178.292C510.824 173.155 510.813 167.849 510.819 162.231Z" fill="#456180"/>
<path d="M243.85 524.107C265.327 527.965 284.177 523.641 300.34 508.686C304.349 504.977 309.339 502.007 314.358 499.777C325.044 495.027 336.352 502.121 337.881 514.052C339.017 522.908 335.893 530.413 330.179 536.947C312.492 557.175 290.297 568.082 263.339 569.248C243.132 570.121 223.978 566.613 207.213 554.806C199.851 549.62 192.799 543.648 186.798 536.963C179.199 528.496 176.223 518.447 181.928 507.322C186.432 498.54 195.165 495.096 203.968 499.583C208.458 501.872 212.693 505.081 216.274 508.646C224.02 516.357 232.926 521.659 243.85 524.107Z" fill="#1D3F64"/>
<path d="M119.742 403.895C122.486 399.411 124.685 394.794 127.842 390.967C138.657 377.851 155.128 377.296 167.127 389.348C173.958 396.209 177.653 404.636 178.681 414.139C180.004 426.383 179.216 438.406 173.226 449.551C169.842 455.848 165.283 461.138 158.759 464.306C147.65 469.702 134.917 466.559 126.764 456.243C115.011 441.371 112.914 421.421 119.742 403.895Z" fill="#1D3F64"/>
<path d="M339.092 413.87C341.392 403.396 345.824 394.407 353.984 387.62C364.587 378.803 377.545 379.243 386.936 389.286C401.468 404.826 403.379 423.106 397.218 442.719C395.274 448.905 392.372 454.647 387.648 459.32C376.171 470.672 359.272 469.871 349.012 457.396C338.521 444.641 336.294 429.96 339.092 413.87Z" fill="#1D3F64"/>
</svg>
